<svg xmlns="http://www.w3.org/2000/svg" width="490" height="180" viewBox="0 0 490 180" fill="none" role="img" aria-label="DoubleSnake: Snake aber zu zweit!">
<defs>
<linearGradient id="water" x1="0" y1="0" x2="0" y2="1"><stop offset="0" stop-color="#1a9fc6"/><stop offset=".55" stop-color="#0b6f9f"/><stop offset="1" stop-color="#084a78"/></linearGradient>
<linearGradient id="ray" x1="0" y1="0" x2="0" y2="1"><stop offset="0" stop-color="#ffffff" stop-opacity=".45"/><stop offset="1" stop-color="#ffffff" stop-opacity="0"/></linearGradient>
<linearGradient id="sand" x1="0" y1="0" x2="0" y2="1"><stop offset="0" stop-color="#f6dfa8"/><stop offset=".5" stop-color="#e2bd78"/><stop offset="1" stop-color="#b98c4c"/></linearGradient>
<linearGradient id="txt" x1="0" y1="0" x2="1" y2="0"><stop offset="0" stop-color="#ffffff"/><stop offset=".6" stop-color="#d7fbff"/><stop offset="1" stop-color="#ffd166"/></linearGradient>
<clipPath id="round"><rect width="490" height="180" rx="14"/></clipPath>
<filter id="caus1" x="-80" y="0" width="650" height="180" filterUnits="userSpaceOnUse"><feTurbulence type="turbulence" baseFrequency=".011 .028" numOctaves="2" seed="94"/><feColorMatrix values="0 0 0 0 1 0 0 0 0 1 0 0 0 0 1 -9 0 0 0 1.35"/></filter>
<filter id="caus2" x="-80" y="0" width="650" height="180" filterUnits="userSpaceOnUse"><feTurbulence type="turbulence" baseFrequency=".016 .022" numOctaves="2" seed="28"/><feColorMatrix values="0 0 0 0 1 0 0 0 0 1 0 0 0 0 1 -9 0 0 0 1.3"/></filter>
<filter id="shadow" x="-10%" y="-30%" width="120%" height="160%"><feDropShadow dx="0" dy="2" stdDeviation="2.5" flood-color="#022337" flood-opacity=".75"/></filter>
<filter id="glow" x="-50%" y="-50%" width="200%" height="200%"><feGaussianBlur stdDeviation="8"/></filter>
<clipPath id="sand10"><path d="M-20 163C-10 162.6 20 162.3 40 160.6C60 158.8 80 153.8 100 152.6C120 151.3 140 152.2 160 153C180 153.7 200 157.2 220 157.1C240 157 260 151.3 280 152.3C300 153.4 320 162.5 340 163.4C360 164.4 380 159.6 400 158.1C420 156.6 440 153.9 460 154.6C480 155.3 510 161 520 162.3L530 180L-20 180Z"/></clipPath>
</defs>
<style>
.sans{font-family:'Segoe UI', -apple-system, BlinkMacSystemFont, 'Helvetica Neue', Arial, sans-serif}
.mono{font-family:ui-monospace, 'SF Mono', 'Cascadia Code', Consolas, 'DejaVu Sans Mono', monospace}
.ray{animation:ray 9s ease-in-out infinite alternate}
@keyframes ray{from{transform:rotate(-3deg);opacity:.35}to{transform:rotate(3deg);opacity:.8}}
.surf{animation:surf 6s linear infinite}
@keyframes surf{to{transform:translateX(120px)}}
.drift1{animation:drift 14s ease-in-out infinite alternate}
.drift2{animation:drift 11s ease-in-out infinite alternate-reverse}
@keyframes drift{from{transform:translate(-40px,0)}to{transform:translate(40px,6px)}}
.pk{animation:pk 12s ease-in-out infinite alternate}
@keyframes pk{to{transform:translate(14px,-12px)}}
.rise{animation:rise 8s linear infinite}
@keyframes rise{0%{transform:translateY(0);opacity:0}8%{opacity:1}85%{opacity:1}100%{transform:translateY(-210px);opacity:0}}
.wob{animation:wob 2s ease-in-out infinite alternate}
@keyframes wob{from{transform:translateX(-4px)}to{transform:translateX(4px)}}
.swimR{animation:swimR 18s linear infinite}
@keyframes swimR{from{transform:translateX(-140px)}to{transform:translateX(630px)}}
.swimL{animation:swimL 18s linear infinite}
@keyframes swimL{from{transform:translateX(630px)}to{transform:translateX(-140px)}}

</style>
<g clip-path="url(#round)">
<rect width="490" height="180" fill="url(#water)"/>
<g fill="url(#ray)"><polygon class="ray" points="62.3,0 107.2,0 160.9,180 -45.5,180" style="transform-origin:84.7px 0;animation-duration:7.4s;animation-delay:-7.2s"/><polygon class="ray" points="257.1,0 287.3,0 393.1,180 107.5,180" style="transform-origin:272.2px 0;animation-duration:11.9s;animation-delay:-0.8s"/><polygon class="ray" points="397.2,0 426.3,0 438.9,180 298.7,180" style="transform-origin:411.7px 0;animation-duration:9.8s;animation-delay:-1.6s"/></g>
<g opacity="0.16"><g class="drift1"><rect x="-80" y="0" width="650" height="180" filter="url(#caus1)"/></g><g class="drift2"><rect x="-80" y="0" width="650" height="180" filter="url(#caus2)"/></g></g>
<g class="surf" style="animation-duration:6s"><path d="M-120 0V14q30 -5 60 0t60 0q30 -5 60 0t60 0q30 -5 60 0t60 0q30 -5 60 0t60 0q30 -5 60 0t60 0q30 -5 60 0t60 0q30 -5 60 0t60 0V0Z" fill="#ffffff" opacity=".22"/></g>
<g class="surf" style="animation-duration:9s;animation-direction:reverse"><path d="M-120 0V9q30 -4 60 0t60 0q30 -4 60 0t60 0q30 -4 60 0t60 0q30 -4 60 0t60 0q30 -4 60 0t60 0q30 -4 60 0t60 0q30 -4 60 0t60 0V0Z" fill="#ffffff" opacity=".25"/></g>

<g transform="translate(0 118)"><g class="swimL" style="animation-duration:18s;animation-delay:-4s"><g><animateTransform attributeName="transform" type="translate" values="0 0;0 6;0 0" dur="3.6s" begin="-0s" repeatCount="indefinite" calcMode="spline" keyTimes="0;.5;1" keySplines=".45 0 .55 1;.45 0 .55 1"/><g transform="scale(-0.75 0.75)"><g><animateTransform attributeName="transform" type="rotate" values="-14 -20 0;14 -20 0;-14 -20 0" dur="0.5s" begin="-0s" repeatCount="indefinite" calcMode="spline" keyTimes="0;.5;1" keySplines=".45 0 .55 1;.45 0 .55 1"/><path d="M-20 0L-33 -12L-30 0L-33 12Z" fill="#ffd23f" stroke="#0d2a6b" stroke-width="1.5" stroke-linejoin="round"/></g>
<path d="M-14 -11Q2 -22 16 -8" fill="#1d4ed8" stroke="#0d2a6b" stroke-width="1.4"/>
<ellipse rx="23" ry="14" fill="#2f6bff" stroke="#0d2a6b" stroke-width="1.6"/>
<path d="M-17 -2Q-4 -12 12 -6Q2 -3 -4 3Q-10 6 -17 -2Z" fill="#0b1a3f"/>
<circle cx="16" cy="-3" r="3" fill="#ffffff"/><circle cx="16.8" cy="-3" r="1.8" fill="#111111"/></g></g></g></g>
<path d="M-20 163C-10 162.6 20 162.3 40 160.6C60 158.8 80 153.8 100 152.6C120 151.3 140 152.2 160 153C180 153.7 200 157.2 220 157.1C240 157 260 151.3 280 152.3C300 153.4 320 162.5 340 163.4C360 164.4 380 159.6 400 158.1C420 156.6 440 153.9 460 154.6C480 155.3 510 161 520 162.3L530 180L-20 180Z" fill="url(#sand)"/>
<path d="M-20 163C-10 162.6 20 162.3 40 160.6C60 158.8 80 153.8 100 152.6C120 151.3 140 152.2 160 153C180 153.7 200 157.2 220 157.1C240 157 260 151.3 280 152.3C300 153.4 320 162.5 340 163.4C360 164.4 380 159.6 400 158.1C420 156.6 440 153.9 460 154.6C480 155.3 510 161 520 162.3" stroke="#fff4cf" stroke-opacity=".6" stroke-width="2"/>
<g fill="#9b733c"><circle cx="451.4" cy="173.7" r="0.9" opacity="0.5"/><circle cx="319.3" cy="172.1" r="0.7" opacity="0.6"/><circle cx="38.9" cy="164" r="0.9" opacity="0.3"/><circle cx="485.2" cy="178" r="1" opacity="0.3"/><circle cx="204.3" cy="179.2" r="0.7" opacity="0.3"/><circle cx="470.8" cy="172.9" r="1.1" opacity="0.5"/><circle cx="322.7" cy="181.1" r="1" opacity="0.2"/><circle cx="475.1" cy="181.2" r="1.1" opacity="0.4"/><circle cx="45.2" cy="166.8" r="1.1" opacity="0.5"/><circle cx="312.1" cy="167.2" r="1" opacity="0.4"/><circle cx="53.7" cy="166.5" r="1.5" opacity="0.2"/><circle cx="289.3" cy="173.2" r="0.7" opacity="0.4"/><circle cx="463.7" cy="168.8" r="0.8" opacity="0.4"/><circle cx="161.7" cy="184.2" r="0.8" opacity="0.5"/><circle cx="193.4" cy="169.3" r="0.7" opacity="0.5"/><circle cx="68.7" cy="173.8" r="0.8" opacity="0.2"/><circle cx="344.2" cy="172.9" r="1.5" opacity="0.6"/><circle cx="311.5" cy="168.1" r="1.3" opacity="0.6"/><circle cx="360.8" cy="184.2" r="0.9" opacity="0.5"/><circle cx="245.7" cy="181" r="1.4" opacity="0.4"/><circle cx="154.3" cy="181.4" r="0.8" opacity="0.6"/><circle cx="455.9" cy="171.2" r="1.3" opacity="0.5"/><circle cx="480.5" cy="179.9" r="0.8" opacity="0.4"/><circle cx="400.6" cy="183.8" r="1.1" opacity="0.3"/><circle cx="366.9" cy="167.5" r="0.9" opacity="0.6"/><circle cx="180.8" cy="184.8" r="0.9" opacity="0.4"/><circle cx="325" cy="165" r="1" opacity="0.3"/><circle cx="54.5" cy="172" r="1.2" opacity="0.3"/><circle cx="345.4" cy="169.4" r="0.5" opacity="0.3"/><circle cx="229.6" cy="171.5" r="1" opacity="0.3"/><circle cx="54" cy="182.8" r="0.5" opacity="0.5"/><circle cx="49.4" cy="179.4" r="0.8" opacity="0.5"/><circle cx="167.5" cy="173.6" r="0.5" opacity="0.4"/><circle cx="231.3" cy="183" r="1" opacity="0.3"/><circle cx="399.5" cy="166.5" r="1.3" opacity="0.2"/><circle cx="359.5" cy="176.5" r="1.5" opacity="0.3"/><circle cx="77.6" cy="178.3" r="1.4" opacity="0.3"/><circle cx="250.8" cy="177.6" r="1.4" opacity="0.5"/><circle cx="405.2" cy="184.3" r="1.2" opacity="0.2"/><circle cx="360.2" cy="165.1" r="1.4" opacity="0.3"/><circle cx="80.4" cy="182.2" r="1.2" opacity="0.6"/><circle cx="410.6" cy="173.2" r="1.4" opacity="0.3"/><circle cx="288.1" cy="170.5" r="0.5" opacity="0.2"/><circle cx="63.9" cy="175.9" r="1.3" opacity="0.4"/><circle cx="350.4" cy="176.3" r="1.2" opacity="0.4"/><circle cx="430.3" cy="176.5" r="0.7" opacity="0.5"/><circle cx="294" cy="171.3" r="1.2" opacity="0.4"/><circle cx="485.3" cy="175.1" r="0.7" opacity="0.2"/><circle cx="452.6" cy="181.5" r="0.8" opacity="0.2"/><circle cx="378.6" cy="181.2" r="1" opacity="0.4"/><circle cx="152.7" cy="170.3" r="1.4" opacity="0.6"/><circle cx="141.8" cy="165.2" r="1.4" opacity="0.3"/><circle cx="203.6" cy="171" r="1" opacity="0.4"/><circle cx="44.1" cy="181.9" r="1.3" opacity="0.4"/><circle cx="383.3" cy="169.5" r="0.9" opacity="0.3"/><circle cx="271.5" cy="173.7" r="1.2" opacity="0.4"/><circle cx="154.9" cy="174.3" r="1.4" opacity="0.4"/><circle cx="272.9" cy="171.7" r="1.1" opacity="0.5"/><circle cx="224.6" cy="182.3" r="0.6" opacity="0.4"/><circle cx="274.2" cy="164.7" r="1" opacity="0.5"/><circle cx="291.1" cy="175.6" r="0.7" opacity="0.6"/><circle cx="370.7" cy="168" r="0.6" opacity="0.5"/><circle cx="432.2" cy="173.5" r="0.6" opacity="0.5"/><circle cx="172" cy="174" r="0.8" opacity="0.4"/><circle cx="305.7" cy="180.2" r="1.3" opacity="0.3"/><circle cx="135.9" cy="184.7" r="0.9" opacity="0.4"/><circle cx="412.3" cy="178.5" r="1.4" opacity="0.3"/><circle cx="172.7" cy="175.5" r="0.6" opacity="0.4"/><circle cx="89.6" cy="168.9" r="0.6" opacity="0.2"/><circle cx="308.9" cy="164.2" r="0.7" opacity="0.3"/><circle cx="134.3" cy="164.9" r="1.2" opacity="0.3"/><circle cx="189.6" cy="171.6" r="1.2" opacity="0.3"/><circle cx="39.3" cy="180.4" r="1.1" opacity="0.4"/><circle cx="418.1" cy="182.6" r="1.3" opacity="0.2"/><circle cx="344" cy="181.6" r="1.2" opacity="0.4"/><circle cx="315.1" cy="183.3" r="1.3" opacity="0.3"/><circle cx="83.2" cy="178.2" r="1.1" opacity="0.3"/><circle cx="9.2" cy="175.9" r="1.4" opacity="0.5"/><circle cx="152.3" cy="182.8" r="0.6" opacity="0.5"/><circle cx="196.8" cy="182.5" r="1.5" opacity="0.5"/><circle cx="398.1" cy="174.1" r="1.3" opacity="0.5"/><circle cx="409.4" cy="185.4" r="1.5" opacity="0.6"/></g>
<g opacity="0.55" clip-path="url(#sand10)"><g class="drift1"><rect x="-80" y="148" width="650" height="42" filter="url(#caus1)"/></g><g class="drift2"><rect x="-80" y="148" width="650" height="42" filter="url(#caus2)"/></g></g>
<g><animateTransform attributeName="transform" type="rotate" values="-1.6 425 160;1.6 425 160;-1.6 425 160" dur="6.9s" begin="-3s" repeatCount="indefinite" calcMode="spline" keyTimes="0;.5;1" keySplines=".45 0 .55 1;.45 0 .55 1"/><g stroke="#ff6f91" stroke-linecap="round" fill="none"><path d="M425 160Q424.7 144.3 426.6 131.5" stroke-width="9.5"/><path d="M426.6 131.5Q419.8 121.7 416.8 112.2" stroke-width="7"/><path d="M416.8 112.2Q408.7 108.5 404.3 101.8" stroke-width="5.2"/><path d="M404.3 101.8Q398.6 99.3 393.1 100.5" stroke-width="3.8"/><path d="M404.3 101.8Q399.2 97.2 394.8 93.7" stroke-width="3.8"/><path d="M404.3 101.8Q403.3 95 399.1 90.5" stroke-width="3.8"/><path d="M416.8 112.2Q415.7 104.4 414.2 98" stroke-width="5.2"/><path d="M414.2 98Q409.7 93.8 406.5 89.8" stroke-width="3.8"/><path d="M414.2 98Q416.8 92.4 416.9 87.1" stroke-width="3.8"/><path d="M426.6 131.5Q426.1 120.2 427.8 110.9" stroke-width="7"/><path d="M427.8 110.9Q426.3 102.5 422.9 96.2" stroke-width="5.2"/><path d="M422.9 96.2Q419.7 90.7 415.5 87.2" stroke-width="3.8"/><path d="M422.9 96.2Q423.4 90 424.3 85" stroke-width="3.8"/><path d="M427.8 110.9Q431.8 103.4 434.2 96.8" stroke-width="5.2"/><path d="M434.2 96.8Q432.6 91.3 433.3 86.5" stroke-width="3.8"/><path d="M434.2 96.8Q436.7 90.9 438.9 86.2" stroke-width="3.8"/><path d="M434.2 96.8Q440 93.6 444.5 90.6" stroke-width="3.8"/><path d="M426.6 131.5Q435.3 124.8 438.8 115.7" stroke-width="7"/><path d="M438.8 115.7Q438.9 107.6 441.9 101.2" stroke-width="5.2"/><path d="M441.9 101.2Q440.8 95.3 440.9 90.4" stroke-width="3.8"/><path d="M441.9 101.2Q444 95.8 446.9 92" stroke-width="3.8"/><path d="M438.8 115.7Q446 112.4 451.5 108.8" stroke-width="5.2"/><path d="M451.5 108.8Q455.1 104.5 458.4 101.2" stroke-width="3.8"/><path d="M451.5 108.8Q456.7 107.4 461.2 106.7" stroke-width="3.8"/></g><g stroke="#ffffff" stroke-opacity=".28" transform="translate(-1 -1)"><path d="M425 160Q424.7 144.3 426.6 131.5" stroke-width="2.9"/><path d="M426.6 131.5Q419.8 121.7 416.8 112.2" stroke-width="2.1"/><path d="M416.8 112.2Q408.7 108.5 404.3 101.8" stroke-width="1.6"/><path d="M404.3 101.8Q398.6 99.3 393.1 100.5" stroke-width="1.2"/><path d="M404.3 101.8Q399.2 97.2 394.8 93.7" stroke-width="1.2"/><path d="M404.3 101.8Q403.3 95 399.1 90.5" stroke-width="1.2"/><path d="M416.8 112.2Q415.7 104.4 414.2 98" stroke-width="1.6"/><path d="M414.2 98Q409.7 93.8 406.5 89.8" stroke-width="1.2"/><path d="M414.2 98Q416.8 92.4 416.9 87.1" stroke-width="1.2"/><path d="M426.6 131.5Q426.1 120.2 427.8 110.9" stroke-width="2.1"/><path d="M427.8 110.9Q426.3 102.5 422.9 96.2" stroke-width="1.6"/><path d="M422.9 96.2Q419.7 90.7 415.5 87.2" stroke-width="1.2"/><path d="M422.9 96.2Q423.4 90 424.3 85" stroke-width="1.2"/><path d="M427.8 110.9Q431.8 103.4 434.2 96.8" stroke-width="1.6"/><path d="M434.2 96.8Q432.6 91.3 433.3 86.5" stroke-width="1.2"/><path d="M434.2 96.8Q436.7 90.9 438.9 86.2" stroke-width="1.2"/><path d="M434.2 96.8Q440 93.6 444.5 90.6" stroke-width="1.2"/><path d="M426.6 131.5Q435.3 124.8 438.8 115.7" stroke-width="2.1"/><path d="M438.8 115.7Q438.9 107.6 441.9 101.2" stroke-width="1.6"/><path d="M441.9 101.2Q440.8 95.3 440.9 90.4" stroke-width="1.2"/><path d="M441.9 101.2Q444 95.8 446.9 92" stroke-width="1.2"/><path d="M438.8 115.7Q446 112.4 451.5 108.8" stroke-width="1.6"/><path d="M451.5 108.8Q455.1 104.5 458.4 101.2" stroke-width="1.2"/><path d="M451.5 108.8Q456.7 107.4 461.2 106.7" stroke-width="1.2"/></g><g fill="#ffd1dc"><circle cx="393.1" cy="100.5" r="2.4"/><circle cx="394.8" cy="93.7" r="2.4"/><circle cx="399.1" cy="90.5" r="2.4"/><circle cx="406.5" cy="89.8" r="2.4"/><circle cx="416.9" cy="87.1" r="2.4"/><circle cx="415.5" cy="87.2" r="2.4"/><circle cx="424.3" cy="85" r="2.4"/><circle cx="433.3" cy="86.5" r="2.4"/><circle cx="438.9" cy="86.2" r="2.4"/><circle cx="444.5" cy="90.6" r="2.4"/><circle cx="440.9" cy="90.4" r="2.4"/><circle cx="446.9" cy="92" r="2.4"/><circle cx="458.4" cy="101.2" r="2.4"/><circle cx="461.2" cy="106.7" r="2.4"/></g></g><g><animateTransform attributeName="transform" type="rotate" values="-6 470 162;6 470 162;-6 470 162" dur="6s" begin="-0.1s" repeatCount="indefinite" calcMode="spline" keyTimes="0;.5;1" keySplines=".45 0 .55 1;.45 0 .55 1"/><path d="M470 162C469.8 159.9 469.1 153.4 468.8 149.1C468.5 144.9 467.4 140.6 468.2 136.3C469.1 132 474.4 127.7 473.8 123.4C473.3 119.1 466.8 114.9 465.1 110.6C463.4 106.3 463.3 102 463.6 97.7C463.9 93.4 465.7 89.1 466.7 84.9C467.7 80.6 469.2 74.1 469.7 72" stroke="#2fbf71" stroke-width="7" stroke-linecap="round"/><path d="M468.5 162C468.3 159.9 467.6 153.4 467.3 149.1C467 144.9 465.9 140.6 466.7 136.3C467.6 132 472.9 127.7 472.3 123.4C471.8 119.1 465.3 114.9 463.6 110.6C461.9 106.3 461.8 102 462.1 97.7C462.4 93.4 464.2 89.1 465.2 84.9C466.2 80.6 467.7 74.1 468.2 72" stroke="#ffffff" stroke-opacity=".22" stroke-width="2" stroke-linecap="round"/></g>
<text class="mono" x="464" y="30" text-anchor="end" font-size="10" fill="#ffd166" letter-spacing="2" filter="url(#shadow)">DIVE SITE 02</text>
<text class="sans" x="28" y="52" font-size="23" font-weight="800" fill="#f2feff" filter="url(#shadow)">DoubleSnake</text>
<text class="sans" x="28" y="80" font-size="13.5" fill="#b4ecf5" filter="url(#shadow)">Snake aber zu zweit!</text>
<g class="mono" font-size="12" fill="#f2feff" filter="url(#shadow)"><circle cx="34" cy="138" r="5" fill="#ff7a59"/><text x="45" y="142">JavaScript</text><text x="131" y="142" fill="#ffd166">★ 1</text><text x="172.3" y="142" fill="#b4ecf5">last dive 2026-06-27</text></g>
<g fill="#e0fbff"><circle class="pk" cx="369.6" cy="53.5" r="0.7" opacity="0.6" style="animation-duration:8.7s;animation-delay:-7s"/><circle class="pk" cx="220.5" cy="12.6" r="1" opacity="0.4" style="animation-duration:11.6s;animation-delay:-4.9s"/><circle class="pk" cx="401.4" cy="85.4" r="1.7" opacity="0.7" style="animation-duration:17.1s;animation-delay:-2.3s"/><circle class="pk" cx="163.3" cy="99.3" r="1.8" opacity="0.6" style="animation-duration:14.4s;animation-delay:-1.4s"/><circle class="pk" cx="407.8" cy="16.5" r="1.9" opacity="0.4" style="animation-duration:8.9s;animation-delay:-7.3s"/><circle class="pk" cx="170.8" cy="45" r="1.4" opacity="0.7" style="animation-duration:9.3s;animation-delay:-1.8s"/><circle class="pk" cx="425.8" cy="87.3" r="0.9" opacity="0.4" style="animation-duration:8.2s;animation-delay:-0.7s"/><circle class="pk" cx="471.9" cy="76.5" r="1.1" opacity="0.4" style="animation-duration:14.2s;animation-delay:-12.3s"/><circle class="pk" cx="31" cy="155.1" r="1.4" opacity="0.6" style="animation-duration:12.9s;animation-delay:-6.2s"/><circle class="pk" cx="256.5" cy="153.5" r="0.9" opacity="0.6" style="animation-duration:8.7s;animation-delay:-3.2s"/><circle class="pk" cx="216.4" cy="32.4" r="1" opacity="0.7" style="animation-duration:12.7s;animation-delay:-7.7s"/><circle class="pk" cx="4.1" cy="26.7" r="1.7" opacity="0.5" style="animation-duration:16.9s;animation-delay:-16.9s"/><circle class="pk" cx="252.3" cy="14" r="1.6" opacity="0.3" style="animation-duration:11.8s;animation-delay:-1.5s"/><circle class="pk" cx="264.4" cy="175.2" r="1.2" opacity="0.4" style="animation-duration:10.8s;animation-delay:-9.4s"/><circle class="pk" cx="256.8" cy="7" r="1.6" opacity="0.6" style="animation-duration:14.2s;animation-delay:-0.6s"/><circle class="pk" cx="446.9" cy="111.2" r="1.3" opacity="0.5" style="animation-duration:9.5s;animation-delay:-7.1s"/><circle class="pk" cx="150" cy="71.1" r="1.1" opacity="0.5" style="animation-duration:8.9s;animation-delay:-6.3s"/><circle class="pk" cx="68" cy="26.2" r="1.9" opacity="0.6" style="animation-duration:12s;animation-delay:-1s"/><circle class="pk" cx="114.9" cy="98.9" r="1" opacity="0.3" style="animation-duration:16.9s;animation-delay:-7.3s"/><circle class="pk" cx="125.7" cy="103.4" r="1.6" opacity="0.6" style="animation-duration:10s;animation-delay:-6.9s"/></g>
<g><g class="rise" style="animation-duration:8.2s;animation-delay:-6.7s"><g class="wob" style="animation-duration:2.3s">
<circle cx="51.4" cy="190" r="1.9" fill="#ffffff" fill-opacity=".12" stroke="#ffffff" stroke-opacity=".75"/>
<circle cx="50.7" cy="189.3" r="0.5" fill="#ffffff" opacity=".8"/></g></g><g class="rise" style="animation-duration:8.6s;animation-delay:-8s"><g class="wob" style="animation-duration:1.8s">
<circle cx="219.9" cy="190" r="2.4" fill="#ffffff" fill-opacity=".12" stroke="#ffffff" stroke-opacity=".75"/>
<circle cx="219" cy="189.1" r="0.7" fill="#ffffff" opacity=".8"/></g></g><g class="rise" style="animation-duration:5.7s;animation-delay:-4.8s"><g class="wob" style="animation-duration:2.7s">
<circle cx="483.1" cy="190" r="3.3" fill="#ffffff" fill-opacity=".12" stroke="#ffffff" stroke-opacity=".75"/>
<circle cx="481.9" cy="188.9" r="0.9" fill="#ffffff" opacity=".8"/></g></g><g class="rise" style="animation-duration:9s;animation-delay:-6.9s"><g class="wob" style="animation-duration:3s">
<circle cx="266.3" cy="190" r="1.8" fill="#ffffff" fill-opacity=".12" stroke="#ffffff" stroke-opacity=".75"/>
<circle cx="265.7" cy="189.4" r="0.5" fill="#ffffff" opacity=".8"/></g></g><g class="rise" style="animation-duration:6.7s;animation-delay:-4.4s"><g class="wob" style="animation-duration:2.3s">
<circle cx="354.1" cy="190" r="2.3" fill="#ffffff" fill-opacity=".12" stroke="#ffffff" stroke-opacity=".75"/>
<circle cx="353.3" cy="189.2" r="0.6" fill="#ffffff" opacity=".8"/></g></g><g class="rise" style="animation-duration:10.1s;animation-delay:-1.4s"><g class="wob" style="animation-duration:1.9s">
<circle cx="406.3" cy="190" r="2" fill="#ffffff" fill-opacity=".12" stroke="#ffffff" stroke-opacity=".75"/>
<circle cx="405.6" cy="189.3" r="0.6" fill="#ffffff" opacity=".8"/></g></g><g class="rise" style="animation-duration:5.9s;animation-delay:-2.1s"><g class="wob" style="animation-duration:3.1s">
<circle cx="488.8" cy="190" r="1.5" fill="#ffffff" fill-opacity=".12" stroke="#ffffff" stroke-opacity=".75"/>
<circle cx="488.3" cy="189.5" r="0.4" fill="#ffffff" opacity=".8"/></g></g><g class="rise" style="animation-duration:5.3s;animation-delay:-2.9s"><g class="wob" style="animation-duration:2.9s">
<circle cx="167.4" cy="190" r="6.8" fill="#ffffff" fill-opacity=".12" stroke="#ffffff" stroke-opacity=".75"/>
<circle cx="165" cy="187.6" r="1.9" fill="#ffffff" opacity=".8"/></g></g></g>
</g>
<rect x=".5" y=".5" width="489" height="179" rx="14" stroke="#7fdcef" stroke-opacity=".5"/>
</svg>
